#!OML:ASF H:\GeneralSubjects\Female5\Project 1\Capture day 1\Session 1\Female5.ASF
:FULLY-SPECIFIED
:DEGREES
195
root -21.8348 15.8913 6.70524 -168.791 -21.604 -175.072
lowerback 9.00909 1.20163 1.40746
upperback -8.50409 1.8554 4.19462
thorax -14.6129 0.795293 3.5536
lowerneck -13.3594 -4.89887 -7.57309
upperneck 24.199 -9.84736 12.3384
head 11.0149 -4.3469 4.29654
rclavicle 6.43565e-015 -2.06736e-014
rhumerus -27.4439 -25.0151 -2.29181
rradius 130.569
rwrist 13.7062
rhand -46.1572 -9.22272
rfingers 7.12502
rthumb -18.8969 -38.3248
lclavicle 6.43565e-015 -2.06736e-014
lhumerus -12.9436 23.6993 24.3138
lradius 137.034
lwrist -35.7775
lhand -47.1355 69.7027
lfingers 7.12502
lthumb -19.8376 -98.7103
rfemur 1.19416 38.8883 37.7858
rtibia -12.5935
rfoot -49.3935 -41.1492
rtoes 25.0017
lfemur -18.8016 -21.5067 0.246488
ltibia 12.4552
lfoot -16.6829 20.6252
ltoes -68.7899
196
root -21.8278 15.8923 6.71082 -168.709 -21.6814 -175.109
lowerback 9.03939 1.22998 1.43921
upperback -8.48793 1.89867 4.12584
thorax -14.6102 0.810158 3.4475
lowerneck -13.1904 -4.8426 -7.91416
upperneck 24.2529 -9.76829 12.5412
head 11.02 -4.33033 4.44809
rclavicle 2.16427e-014 3.10104e-014
rhumerus -27.461 -24.9965 -2.24267
rradius 130.585
rwrist 13.6963
rhand -46.0818 -9.09289
rfingers 7.12502
rthumb -18.8243 -38.202
lclavicle 2.16427e-014 3.10104e-014
lhumerus -12.8317 23.6683 24.3259
lradius 136.922
lwrist -35.8417
lhand -47.1156 69.8107
lfingers 7.12502
lthumb -19.8184 -98.8203
rfemur 1.06119 38.7645 37.6949
rtibia -12.6234
rfoot -49.3441 -41.0746
rtoes 24.946
lfemur -18.9245 -21.5479 0.28966
ltibia 12.3942
lfoot -16.5371 20.7005
ltoes -68.7884
197
root -21.8219 15.8935 6.71535 -168.664 -21.7369 -175.133
lowerback 9.07863 1.25872 1.49338
upperback -8.4658 1.94715 4.07194
thorax -14.6061 0.825807 3.34431
lowerneck -13.0405 -4.78693 -8.22956
upperneck 24.3197 -9.68432 12.7005
head 11.0286 -4.31261 4.58003
rclavicle 5.08516e-014 -4.05521e-014
rhumerus -27.4547 -24.9724 -2.25442
rradius 130.604
rwrist 13.729
rhand -45.983 -8.7425
rfingers 7.12502
rthumb -18.7293 -37.8608
lclavicle 5.08516e-014 -4.05521e-014
lhumerus -12.7286 23.6162 24.3864
lradius 136.842
lwrist -35.9684
lhand -47.1065 69.9008
lfingers 7.12502
lthumb -19.8097 -98.9113
rfemur 0.957644 38.6546 37.6318
rtibia -12.6249
rfoot -49.2817 -41.0304
rtoes 24.8007
lfemur -18.9858 -21.6179 0.327182
ltibia 12.3218
lfoot -16.5444 20.7089
ltoes -68.6649
198
root -21.817 15.8948 6.71882 -168.648 -21.7772 -175.149
lowerback 9.1185 1.28499 1.56219
upperback -8.44005 1.9953 4.03389
thorax -14.5982 0.84043 3.25078
lowerneck -12.941 -4.74003 -8.45485
upperneck 24.4177 -9.60432 12.7544
head 11.0485 -4.29628 4.65627
rclavicle -4.83668e-014 -7.95139e-016
rhumerus -27.4221 -24.9442 -2.32055
rradius 130.62
rwrist 13.7969
rhand -45.8863 -8.32887
rfingers 7.12502
rthumb -18.6363 -37.4562
lclavicle -4.83668e-014 -7.95139e-016
lhumerus -12.6505 23.5749 24.4424
lradius 136.801
lwrist -36.0882
lhand -47.0997 69.9377
lfingers 7.12502
lthumb -19.8031 -98.9489
rfemur 0.882079 38.5549 37.5967
rtibia -12.603
rfoot -49.2216 -40.9965
rtoes 24.6141
lfemur -19.0002 -21.7026 0.357913
ltibia 12.2399
lfoot -16.6693 20.6567
ltoes -68.4521
199
root -21.8129 15.8959 6.72119 -168.651 -21.8112 -175.157
lowerback 9.15069 1.3039 1.64391
upperback -8.41568 2.03552 4.0131
thorax -14.587 0.850502 3.17134
lowerneck -12.8943 -4.70778 -8.58426
upperneck 24.5532 -9.53813 12.6982
head 11.0835 -4.28592 4.67233
rclavicle 4.26145e-014 -1.35174e-014
rhumerus -27.3586 -24.9096 -2.41877
rradius 130.63
rwrist 13.8768
rhand -45.8198 -7.99896
rfingers 7.12502
rthumb -18.5723 -37.1324
lclavicle 4.26145e-014 -1.35174e-014
lhumerus -12.6209 23.5561 24.47
lradius 136.808
lwrist -36.1753
lhand -47.1007 69.8905
lfingers 7.12502
lthumb -19.8041 -98.9015
rfemur 0.835414 38.4586 37.5882
rtibia -12.5686
rfoot -49.1624 -40.9611
rtoes 24.45
lfemur -18.9855 -21.7817 0.377746
ltibia 12.1584
lfoot -16.7852 20.6082
ltoes -68.3038
200
root -21.81 15.8966 6.72225 -168.665 -21.8416 -175.162
lowerback 9.16607 1.31275 1.73158
upperback -8.39948 2.06224 4.01198
thorax -14.575 0.853982 3.11416
lowerneck -12.8938 -4.68246 -8.63579
upperneck 24.7352 -9.48159 12.5575
head 11.1381 -4.27981 4.64177
rclavicle -1.00635e-014 1.11319e-014
rhumerus -27.2604 -24.8643 -2.51314
rradius 130.632
rwrist 13.9386
rhand -45.8076 -7.89747
rfingers 7.12502
rthumb -18.5607 -37.032
lclavicle -1.00635e-014 1.11319e-014
lhumerus -12.6573 23.5512 24.4585
lradius 136.851
lwrist -36.2269
lhand -47.1199 69.7524
lfingers 7.12502
lthumb -19.8226 -98.7616
rfemur 0.815552 38.364 37.5987
rtibia -12.5363
rfoot -49.0853 -40.9416
rtoes 24.345
lfemur -18.9565 -21.845 0.385096
ltibia 12.0881
lfoot -16.8322 20.5963
ltoes -68.2635
